<svg width="17" height="18" viewBox="0 0 17 18" fill="none" xmlns="http://www.w3.org/2000/svg">
<path fill-rule="evenodd" clip-rule="evenodd" d="M16.3602 1.94054C16.034 1.61586 15.6136 1.40256 15.159 1.33111C14.7044 1.25966 14.2389 1.33372 13.8289 1.54271C13.8056 1.50962 13.5888 1.27022 13.5036 1.18432C13.0976 0.779246 12.5474 0.551758 11.9739 0.551758C11.4004 0.551758 10.8502 0.779246 10.4442 1.18432L6.59272 5.03581C6.46072 5.16785 6.38657 5.34691 6.38657 5.53362C6.38657 5.72032 6.46072 5.89938 6.59272 6.03143C6.72583 6.16139 6.90449 6.23415 7.09053 6.23415C7.27656 6.23415 7.45522 6.16139 7.58833 6.03143L11.4398 2.17993C11.5815 2.03834 11.7736 1.95881 11.9739 1.95881C12.1742 1.95881 12.3663 2.03834 12.508 2.17993L12.7657 2.43834L11.199 4.00429C11.1307 4.07291 11.0923 4.16583 11.0923 4.2627C11.0923 4.35956 11.1307 4.45248 11.199 4.52111L13.7803 7.09886C13.8487 7.16714 13.9414 7.20549 14.038 7.20549C14.1346 7.20549 14.2273 7.16714 14.2957 7.09886L16.3602 5.0344C16.7701 4.62395 17.0003 4.06757 17.0003 3.48747C17.0003 2.90737 16.7701 2.35099 16.3602 1.94054ZM10.4246 5.29486C10.3561 5.22654 10.2632 5.18817 10.1665 5.18817C10.0697 5.18817 9.97694 5.22654 9.90844 5.29486L4.11571 11.089C4.01386 11.1906 3.93306 11.3114 3.87793 11.4443C3.82279 11.5772 3.79442 11.7196 3.79442 11.8635C3.79442 12.0074 3.82279 12.1499 3.87793 12.2828C3.93306 12.4157 4.01386 12.5364 4.11571 12.638L5.66476 14.1871C5.76639 14.2889 5.88712 14.3697 6.02002 14.4249C6.15292 14.48 6.2954 14.5084 6.43928 14.5084C6.58317 14.5084 6.72564 14.48 6.85854 14.4249C6.99145 14.3697 7.11217 14.2889 7.2138 14.1871L13.0072 8.39366C13.0756 8.32515 13.1139 8.23235 13.1139 8.1356C13.1139 8.03885 13.0756 7.94605 13.0072 7.87754L10.4246 5.29486ZM2.81798 12.9672C2.87488 12.9838 2.92667 13.0145 2.96854 13.0564L5.39139 15.48C5.43334 15.5218 5.46404 15.5736 5.48064 15.6305C5.49724 15.6874 5.49921 15.7476 5.48635 15.8055C5.4735 15.8633 5.44625 15.917 5.40713 15.9615C5.368 16.006 5.31827 16.04 5.26254 16.0601L1.47019 17.4289C1.40704 17.4507 1.33908 17.4545 1.27392 17.4398C1.20875 17.4251 1.14896 17.3926 1.10123 17.3459C1.05397 17.2986 1.02113 17.2389 1.00654 17.1737C0.991951 17.1085 0.996222 17.0405 1.01885 16.9776L2.38835 13.1853C2.40853 13.1295 2.44246 13.0798 2.48698 13.0407C2.5315 13.0015 2.58518 12.9743 2.64305 12.9614C2.70091 12.9486 2.76108 12.9506 2.81798 12.9672Z" fill="#52C973"/>
</svg>
