<svg width="20" height="14" viewBox="0 0 20 14" fill="none" xmlns="http://www.w3.org/2000/svg">
<path d="M18.8415 1.49256C18.7985 1.24418 18.6771 1.01606 18.4952 0.841561C18.3133 0.66706 18.0803 0.55532 17.8304 0.522673C12.6316 -0.174224 7.36313 -0.174224 2.16438 0.522673C1.91449 0.555158 1.68154 0.666746 1.49962 0.841116C1.31769 1.01549 1.19633 1.24349 1.15327 1.49178C0.498388 5.13447 0.498388 8.86475 1.15327 12.5074C1.19629 12.7558 1.31763 12.9839 1.49954 13.1584C1.68146 13.3329 1.91443 13.4447 2.16438 13.4773C4.76138 13.8255 7.3787 14.0001 9.99893 14C12.6186 14 15.2354 13.8254 17.8319 13.4773C18.0819 13.4448 18.315 13.3331 18.4969 13.1586C18.6788 12.984 18.8001 12.7559 18.843 12.5074C19.497 8.86489 19.4965 5.13493 18.8415 1.49256ZM6.88782 9.34889V4.65189C6.89459 4.51533 6.93587 4.38271 7.00779 4.26643C7.07972 4.15015 7.17994 4.054 7.29911 3.98696C7.41827 3.91992 7.55249 3.88418 7.68921 3.88308C7.82593 3.88198 7.9607 3.91556 8.08093 3.98067L12.6854 6.32878C12.8119 6.38944 12.9188 6.48464 12.9935 6.6034C13.0683 6.72217 13.108 6.85965 13.108 7C13.108 7.14034 13.0683 7.27783 12.9935 7.3966C12.9188 7.51536 12.8119 7.61056 12.6854 7.67122L8.08093 10.0193C7.96076 10.0844 7.82606 10.118 7.68939 10.1169C7.55273 10.1159 7.41856 10.0802 7.29942 10.0133C7.18027 9.9463 7.08004 9.85026 7.00806 9.73408C6.93608 9.6179 6.89472 9.48538 6.88782 9.34889Z" fill="#52C973"/>
</svg>
