<svg width="31" height="31" viewBox="0 0 31 31" fill="none" xmlns="http://www.w3.org/2000/svg">
<path fill-rule="evenodd" clip-rule="evenodd" d="M15.8293 0.150391C11.7736 0.150391 11.2646 0.168124 9.67169 0.240614C8.08189 0.313415 6.99673 0.565106 6.04721 0.934399C5.06502 1.31582 4.23185 1.82605 3.4018 2.65642C2.57113 3.48647 2.0609 4.31963 1.67823 5.30151C1.308 6.25134 1.056 7.33682 0.984443 8.92599C0.913198 10.5189 0.894531 11.0282 0.894531 15.0839C0.894531 19.1396 0.912576 19.647 0.984754 21.2399C1.05787 22.8297 1.30956 23.9149 1.67854 24.8644C2.06028 25.8466 2.5705 26.6797 3.40087 27.5098C4.23061 28.3405 5.06377 28.8519 6.04534 29.2334C6.99548 29.6027 8.08096 29.8543 9.67044 29.9271C11.2633 29.9996 11.772 30.0174 15.8274 30.0174C19.8834 30.0174 20.3908 29.9996 21.9837 29.9271C23.5735 29.8543 24.6599 29.6027 25.6101 29.2334C26.592 28.8519 27.4239 28.3405 28.2536 27.5098C29.0843 26.6797 29.5945 25.8466 29.9772 24.8647C30.3443 23.9149 30.5963 22.8294 30.671 21.2402C30.7425 19.6473 30.7612 19.1396 30.7612 15.0839C30.7612 11.0282 30.7425 10.5192 30.671 8.9263C30.5963 7.33651 30.3443 6.25134 29.9772 5.30182C29.5945 4.31963 29.0843 3.48647 28.2536 2.65642C27.4229 1.82574 26.5923 1.31551 25.6091 0.934399C24.6571 0.565106 23.5713 0.313415 21.9816 0.240614C20.3886 0.168124 19.8815 0.150391 15.8246 0.150391H15.8293ZM14.4897 2.84139C14.8873 2.84077 15.331 2.84139 15.8294 2.84139C19.8166 2.84139 20.2892 2.8557 21.8638 2.92726C23.3198 2.99384 24.11 3.23713 24.6364 3.44153C25.3333 3.7122 25.8302 4.03576 26.3525 4.55843C26.8752 5.0811 27.1987 5.57888 27.47 6.27578C27.6744 6.80156 27.918 7.59179 27.9843 9.04781C28.0559 10.622 28.0714 11.0949 28.0714 15.0803C28.0714 19.0657 28.0559 19.5386 27.9843 21.1128C27.9177 22.5688 27.6744 23.3591 27.47 23.8849C27.1994 24.5817 26.8752 25.078 26.3525 25.6003C25.8298 26.123 25.3336 26.4466 24.6364 26.7172C24.1106 26.9226 23.3198 27.1652 21.8638 27.2318C20.2895 27.3034 19.8166 27.3189 15.8294 27.3189C11.8418 27.3189 11.3693 27.3034 9.79501 27.2318C8.339 27.1646 7.54877 26.9213 7.02205 26.7169C6.32515 26.4463 5.82737 26.1227 5.3047 25.6C4.78203 25.0774 4.45847 24.5808 4.18718 23.8836C3.98277 23.3578 3.73917 22.5676 3.6729 21.1116C3.60135 19.5373 3.58704 19.0644 3.58704 15.0766C3.58704 11.0887 3.60135 10.6183 3.6729 9.04408C3.73948 7.58806 3.98277 6.79783 4.18718 6.27143C4.45785 5.57453 4.78203 5.07675 5.3047 4.55407C5.82737 4.0314 6.32515 3.70784 7.02205 3.43655C7.54846 3.23122 8.339 2.98855 9.79501 2.92166C11.1726 2.85943 11.7065 2.84077 14.4897 2.83766V2.84139ZM23.8007 5.32103C22.8113 5.32103 22.0087 6.12277 22.0087 7.11243C22.0087 8.10177 22.8113 8.90444 23.8007 8.90444C24.79 8.90444 25.5927 8.10177 25.5927 7.11243C25.5927 6.12308 24.79 5.32041 23.8007 5.32041V5.32103ZM15.8296 7.41498C11.5944 7.41498 8.16059 10.8488 8.16059 15.084C8.16059 19.3191 11.5944 22.7514 15.8296 22.7514C20.0648 22.7514 23.4973 19.3191 23.4973 15.084C23.4973 10.8488 20.0644 7.41498 15.8292 7.41498H15.8296ZM15.8292 10.1065C18.5782 10.1065 20.8071 12.335 20.8071 15.0843C20.8071 17.8333 18.5782 20.0621 15.8292 20.0621C13.0799 20.0621 10.8514 17.8333 10.8514 15.0843C10.8514 12.335 13.0799 10.1065 15.8292 10.1065Z" fill="black"/>
</svg>
