<svg width="18" height="19" viewBox="0 0 18 19" fill="none" xmlns="http://www.w3.org/2000/svg">
<path fill-rule="evenodd" clip-rule="evenodd" d="M18 9.08398C18 14.0464 13.9626 18.084 9 18.084C4.0376 18.084 0 14.0464 0 9.08398C0 4.12158 4.0374 0.0839844 9 0.0839844C13.9626 0.0839844 18 4.12158 18 9.08398ZM8.6816 4.90178V0.743784C7.2108 0.935584 5.9328 2.44318 5.1878 4.63618C6.2988 4.79998 7.473 4.88818 8.6816 4.90178ZM9.3184 0.743784C10.7892 0.935584 12.067 2.44318 12.8122 4.63598C11.7012 4.79978 10.527 4.88798 9.3184 4.90158V0.743784ZM6.6894 1.04778C5.8054 1.82958 5.0676 3.04478 4.567 4.53358C3.791 4.39718 3.0522 4.22238 2.355 4.01338C3.4316 2.60578 4.9444 1.55058 6.6894 1.04778ZM13.4332 4.53358C14.209 4.39698 14.948 4.22238 15.6448 4.01338C14.5684 2.60578 13.0556 1.55058 11.3106 1.04778C12.1946 1.82958 12.9326 3.04478 13.4332 4.53358ZM17.355 8.76558H14.137C14.111 7.47218 13.9296 6.24718 13.6226 5.14738C14.4694 4.99518 15.2744 4.79858 16.03 4.56178C16.818 5.78318 17.2968 7.22118 17.355 8.76558ZM4.3776 5.14758C3.5308 4.99538 2.7258 4.79878 1.9702 4.56218C1.1818 5.78318 0.703 7.22118 0.6448 8.76578H3.8634C3.8892 7.47238 4.0706 6.24738 4.3776 5.14758ZM8.6816 8.76558H4.4994C4.5252 7.50218 4.7026 6.31058 4.9984 5.24998C6.1692 5.42738 7.407 5.52438 8.6816 5.53818V8.76558ZM13.0016 5.24998C11.8308 5.42738 10.5932 5.52438 9.3184 5.53818V8.76558H13.5004C13.4748 7.50218 13.2974 6.31058 13.0016 5.24998ZM13.6226 13.0202C14.4692 13.1726 15.2742 13.369 16.0298 13.6056C16.818 12.3844 17.2968 10.9468 17.355 9.40218H14.1368C14.1108 10.6956 13.9294 11.9204 13.6226 13.0202ZM0.6448 9.40238H3.8634C3.8892 10.6958 4.0706 11.9206 4.3776 13.0202C3.5308 13.1724 2.7256 13.3692 1.97 13.6058C1.1818 12.3844 0.703 10.9466 0.6448 9.40238ZM4.9984 12.918C6.1692 12.7402 7.4068 12.6438 8.6816 12.6294V9.40238H4.4994C4.5252 10.6654 4.7026 11.8572 4.9984 12.918ZM9.3184 9.40238H13.5004C13.4748 10.6654 13.2974 11.8572 13.0016 12.918C11.8308 12.74 10.5932 12.6438 9.3184 12.6294V9.40238ZM8.6816 17.4238C7.2108 17.232 5.933 15.7248 5.1878 13.5318C6.2988 13.3678 7.473 13.2796 8.6816 13.2662V17.4238ZM12.812 13.5318C11.7012 13.3678 10.527 13.2796 9.3184 13.2662V17.4238C10.7894 17.232 12.067 15.7248 12.812 13.5318ZM6.6892 17.1198C5.8052 16.338 5.0674 15.1226 4.567 13.6338C3.791 13.7708 3.0522 13.9454 2.355 14.1544C3.4314 15.5618 4.944 16.6172 6.6892 17.1198ZM11.311 17.1198C12.1948 16.338 12.9326 15.1228 13.4332 13.6338C14.209 13.7708 14.9478 13.9454 15.6448 14.1544C14.5686 15.5618 13.0558 16.6172 11.311 17.1198Z" fill="black" fill-opacity="0.87"/>
</svg>
