<svg width="32" height="31" viewBox="0 0 32 31" fill="none" xmlns="http://www.w3.org/2000/svg">
<path d="M31.4328 24.4266C31.4328 27.899 28.6197 30.7121 25.1473 30.7121H7.11537C3.64295 30.7121 0.828125 27.899 0.828125 24.4266V6.39467C0.828125 2.92224 3.64295 0.107422 7.11537 0.107422H25.1473C28.6197 0.107422 31.4328 2.92224 31.4328 6.39467V24.4266Z" fill="#007BB5"/>
<path d="M5.41438 11.6936H10.0071V26.4705H5.41438V11.6936ZM7.7125 4.34863C9.1808 4.34863 10.3742 5.54206 10.3742 7.01384C10.3742 8.48388 9.1808 9.67383 7.7125 9.67383C6.24073 9.67383 5.05078 8.48214 5.05078 7.01384C5.05078 5.54206 6.24073 4.34863 7.7125 4.34863Z" fill="#F3EEE7"/>
<path d="M12.8887 11.6935H17.2953V13.715H17.3579C17.9703 12.5529 19.4682 11.3281 21.7037 11.3281C26.3557 11.3281 27.2133 14.3882 27.2133 18.3652V26.4704H22.6223V19.2837C22.6223 17.5701 22.5927 15.3642 20.2354 15.3642C17.8468 15.3642 17.4815 17.2326 17.4815 19.1602V26.4687H12.8887V11.6935Z" fill="#F3EEE7"/>
</svg>
