<svg width="31" height="31" viewBox="0 0 31 31" fill="none" xmlns="http://www.w3.org/2000/svg">
<path d="M27.5243 0.162109H3.30291C2.42701 0.162369 1.58705 0.510437 0.967688 1.1298C0.348327 1.74916 0.000259413 2.58912 0 3.46502L0 27.6864C0.000259413 28.5623 0.348327 29.4023 0.967688 30.0216C1.58705 30.641 2.42701 30.989 3.30291 30.9893H27.5243C28.4002 30.989 29.2402 30.641 29.8595 30.0216C30.4789 29.4023 30.8269 28.5623 30.8272 27.6864V3.46502C30.8269 2.58912 30.4789 1.74916 29.8595 1.1298C29.2402 0.510437 28.4002 0.162369 27.5243 0.162109ZM24.1597 11.0896C24.1734 11.2853 24.1734 11.4811 24.1734 11.6768C24.185 13.3662 23.8608 15.041 23.2196 16.604C22.5785 18.1671 21.6331 19.5871 20.4385 20.7817C19.2439 21.9763 17.8239 22.9216 16.2609 23.5628C14.6979 24.2039 13.023 24.5282 11.3336 24.5166C8.87704 24.5213 6.47112 23.818 4.40389 22.4908C4.76497 22.5298 5.12798 22.5481 5.49116 22.5456C7.52139 22.5498 9.49404 21.8711 11.0919 20.6186C10.1502 20.6013 9.23742 20.2901 8.48118 19.7286C7.72495 19.1672 7.16303 18.3834 6.87398 17.487C7.55101 17.6037 8.2451 17.5757 8.91053 17.4048C7.88944 17.1967 6.97182 16.6417 6.31341 15.834C5.65499 15.0262 5.29635 14.0156 5.29836 12.9735V12.9187C5.92368 13.2691 6.6235 13.4653 7.33981 13.4912C6.71969 13.08 6.21115 12.5216 5.85968 11.8658C5.50821 11.21 5.32477 10.4773 5.32577 9.73322C5.32126 8.93189 5.5329 8.14417 5.9384 7.45299C7.07135 8.84811 8.48511 9.98932 10.0878 10.8025C11.6906 11.6157 13.4464 12.0826 15.2414 12.173C15.0159 11.2042 15.1162 10.1881 15.5266 9.28205C15.937 8.376 16.6347 7.63053 17.5116 7.16109C18.3886 6.69164 19.3958 6.52441 20.3774 6.68527C21.3589 6.84614 22.2601 7.32614 22.9413 8.05094C23.9514 7.85773 24.9201 7.48979 25.8038 6.96367C25.4671 8.00496 24.7626 8.88793 23.8221 9.44746C24.7193 9.34694 25.5962 9.1117 26.4233 8.74969C25.8091 9.65411 25.0433 10.4457 24.1597 11.0896Z" fill="#23C0F5"/>
</svg>
