<svg width="22" height="24" viewBox="0 0 22 24" fill="none" xmlns="http://www.w3.org/2000/svg">
<path d="M21.3125 11.7285C21.3125 18.1488 16.5415 23.3535 10.6562 23.3535C4.77095 23.3535 0 18.1488 0 11.7285C0 5.30819 4.77095 0.103516 10.6562 0.103516C16.5415 0.103516 21.3125 5.30819 21.3125 11.7285ZM9.42365 17.8839L17.3299 9.25886C17.5984 8.96598 17.5984 8.49109 17.3299 8.19822L16.3576 7.13758C16.0892 6.84466 15.6539 6.84466 15.3853 7.13758L8.9375 14.1715L5.92715 10.8875C5.65868 10.5947 5.22337 10.5947 4.95486 10.8875L3.9826 11.9482C3.71413 12.241 3.71413 12.7159 3.9826 13.0088L8.45135 17.8838C8.71986 18.1767 9.15514 18.1767 9.42365 17.8839Z" fill="#59D098"/>
</svg>